<svg width="91" height="22" viewBox="0 0 91 22" fill="none" xmlns="http://www.w3.org/2000/svg">
<rect x="51" y="7" width="40" height="2" fill="#1B1A18"/>
<rect x="51" y="14" width="40" height="2" fill="#1B1A18"/>
<path d="M1.0765 16V4.72H2.7885L6.7885 12.096L10.7725 4.72H12.4525V16H10.5965V8.4L7.3645 14.288H6.1645L2.9325 8.432V16H1.0765ZM18.5991 16.16C17.7138 16.16 16.9511 15.9947 16.3111 15.664C15.6711 15.3333 15.1751 14.864 14.8231 14.256C14.4818 13.648 14.3111 12.928 14.3111 12.096C14.3111 11.2853 14.4765 10.576 14.8071 9.968C15.1485 9.36 15.6125 8.88533 16.1991 8.544C16.7965 8.192 17.4738 8.016 18.2311 8.016C19.3405 8.016 20.2151 8.368 20.8551 9.072C21.5058 9.776 21.8311 10.736 21.8311 11.952V12.544H16.2311C16.3805 13.9413 17.1805 14.64 18.6311 14.64C19.0685 14.64 19.5058 14.576 19.9431 14.448C20.3805 14.3093 20.7805 14.096 21.1431 13.808L21.7031 15.152C21.3298 15.4613 20.8605 15.7067 20.2951 15.888C19.7298 16.0693 19.1645 16.16 18.5991 16.16ZM18.3111 9.376C17.7245 9.376 17.2498 9.55733 16.8871 9.92C16.5245 10.2827 16.3058 10.7733 16.2311 11.392H20.1671C20.1245 10.7413 19.9431 10.2453 19.6231 9.904C19.3138 9.552 18.8765 9.376 18.3111 9.376ZM23.415 16V8.176H25.367V9.392C25.6337 8.944 25.991 8.60267 26.439 8.368C26.8977 8.13333 27.4097 8.016 27.975 8.016C29.8203 8.016 30.743 9.088 30.743 11.232V16H28.743V11.328C28.743 10.72 28.6257 10.2773 28.391 10C28.167 9.72267 27.815 9.584 27.335 9.584C26.7483 9.584 26.279 9.77067 25.927 10.144C25.5857 10.5067 25.415 10.992 25.415 11.6V16H23.415ZM35.6064 16.16C33.6864 16.16 32.7264 15.0827 32.7264 12.928V8.176H34.7264V12.96C34.7264 13.5147 34.8384 13.9253 35.0624 14.192C35.2864 14.4587 35.6437 14.592 36.1344 14.592C36.6677 14.592 37.105 14.4107 37.4464 14.048C37.7877 13.6747 37.9584 13.184 37.9584 12.576V8.176H39.9584V16H38.0064V14.832C37.4837 15.7173 36.6837 16.16 35.6064 16.16Z" fill="#20211F"/>
</svg>
